<mxfile host="Electron" agent="Mozilla/5.0 (Windows NT 10.0; Win64; x64) AppleWebKit/537.36 (KHTML, like Gecko) draw.io/27.0.9 Chrome/134.0.6998.205 Electron/35.4.0 Safari/537.36" version="27.0.9">
  <diagram name="Página-1" id="mBOR_W_KqZEb1eNvgwfq">
    <mxGraphModel dx="2852" dy="1750" grid="1" gridSize="10" guides="1" tooltips="1" connect="1" arrows="1" fold="1" page="1" pageScale="1" pageWidth="1654" pageHeight="2336" math="0" shadow="0">
      <root>
        <mxCell id="0" />
        <mxCell id="1" parent="0" />
        <mxCell id="VdSNLCkU5RJ3n_qXY93L-29" style="edgeStyle=orthogonalEdgeStyle;rounded=0;orthogonalLoop=1;jettySize=auto;html=1;exitX=0.5;exitY=1;exitDx=0;exitDy=0;entryX=0.5;entryY=0;entryDx=0;entryDy=0;" parent="1" source="VdSNLCkU5RJ3n_qXY93L-1" target="MPjt9UGckPZa9Mfz1uRQ-1" edge="1">
          <mxGeometry relative="1" as="geometry">
            <mxPoint x="430" y="110" as="targetPoint" />
            <Array as="points">
              <mxPoint x="320" y="110" />
              <mxPoint x="320" y="110" />
            </Array>
          </mxGeometry>
        </mxCell>
        <mxCell id="VdSNLCkU5RJ3n_qXY93L-1" value="&lt;font style=&quot;font-size: 12px;&quot;&gt;Visualizar Progresso nos Hábitos&lt;/font&gt;" style="ellipse;whiteSpace=wrap;html=1;" parent="1" vertex="1">
          <mxGeometry x="280" y="30" width="80" height="80" as="geometry" />
        </mxCell>
        <mxCell id="MPjt9UGckPZa9Mfz1uRQ-14" value="" style="edgeStyle=orthogonalEdgeStyle;rounded=0;orthogonalLoop=1;jettySize=auto;html=1;" parent="1" source="VdSNLCkU5RJ3n_qXY93L-2" target="VdSNLCkU5RJ3n_qXY93L-13" edge="1">
          <mxGeometry relative="1" as="geometry" />
        </mxCell>
        <mxCell id="VdSNLCkU5RJ3n_qXY93L-2" value="&lt;div&gt;&lt;div style=&quot;text-align: center;&quot;&gt;Exemplo de Representação:&lt;/div&gt;&lt;div style=&quot;text-align: center;&quot;&gt;&lt;br&gt;&lt;/div&gt;&lt;div style=&quot;text-align: center;&quot;&gt;&quot;Hábito: estudar (Semanal)&lt;/div&gt;&lt;div style=&quot;text-align: center;&quot;&gt;Período: 2025-05-28 até 2025-06-28&lt;/div&gt;&lt;div style=&quot;text-align: center;&quot;&gt;Progresso: ⬜⬜⬜⬜⬜ 0.00% (0/5 registros previstos)&lt;/div&gt;&lt;div style=&quot;text-align: center;&quot;&gt;&lt;br&gt;&lt;/div&gt;&lt;div style=&quot;text-align: center;&quot;&gt;Deseja adicionar progresso para este hábito? (s/n): &quot;&lt;/div&gt;&lt;/div&gt;&lt;div&gt;&lt;br&gt;&lt;/div&gt;" style="shape=document;whiteSpace=wrap;html=1;boundedLbl=1;align=left;" parent="1" vertex="1">
          <mxGeometry x="240" y="250" width="310" height="210" as="geometry" />
        </mxCell>
        <mxCell id="VdSNLCkU5RJ3n_qXY93L-19" style="edgeStyle=orthogonalEdgeStyle;rounded=0;orthogonalLoop=1;jettySize=auto;html=1;exitX=0;exitY=0.5;exitDx=0;exitDy=0;entryX=0.5;entryY=0;entryDx=0;entryDy=0;" parent="1" source="VdSNLCkU5RJ3n_qXY93L-10" target="VdSNLCkU5RJ3n_qXY93L-18" edge="1">
          <mxGeometry relative="1" as="geometry" />
        </mxCell>
        <mxCell id="VdSNLCkU5RJ3n_qXY93L-26" value="" style="edgeStyle=orthogonalEdgeStyle;rounded=0;orthogonalLoop=1;jettySize=auto;html=1;exitX=1;exitY=0.5;exitDx=0;exitDy=0;" parent="1" source="VdSNLCkU5RJ3n_qXY93L-10" edge="1">
          <mxGeometry relative="1" as="geometry">
            <mxPoint x="600" y="630" as="targetPoint" />
            <mxPoint x="559.9090909090914" y="630.0909090909086" as="sourcePoint" />
          </mxGeometry>
        </mxCell>
        <mxCell id="VdSNLCkU5RJ3n_qXY93L-10" value="Dígito de escolha é igual a &#39;s&#39;?" style="rhombus;whiteSpace=wrap;html=1;" parent="1" vertex="1">
          <mxGeometry x="350" y="590" width="80" height="80" as="geometry" />
        </mxCell>
        <mxCell id="VdSNLCkU5RJ3n_qXY93L-15" value="" style="edgeStyle=orthogonalEdgeStyle;rounded=0;orthogonalLoop=1;jettySize=auto;html=1;" parent="1" source="VdSNLCkU5RJ3n_qXY93L-13" target="VdSNLCkU5RJ3n_qXY93L-10" edge="1">
          <mxGeometry relative="1" as="geometry" />
        </mxCell>
        <mxCell id="VdSNLCkU5RJ3n_qXY93L-13" value="" style="verticalLabelPosition=bottom;verticalAlign=top;html=1;shape=card;whiteSpace=wrap;size=20;arcSize=12;" parent="1" vertex="1">
          <mxGeometry x="345" y="495" width="100" height="60" as="geometry" />
        </mxCell>
        <mxCell id="VdSNLCkU5RJ3n_qXY93L-17" value="Dìgito de Escolha" style="text;html=1;align=center;verticalAlign=middle;resizable=0;points=[];autosize=1;strokeColor=none;fillColor=none;" parent="1" vertex="1">
          <mxGeometry x="335" y="510" width="120" height="30" as="geometry" />
        </mxCell>
        <mxCell id="VdSNLCkU5RJ3n_qXY93L-22" style="edgeStyle=orthogonalEdgeStyle;rounded=0;orthogonalLoop=1;jettySize=auto;html=1;exitX=0;exitY=0.5;exitDx=0;exitDy=0;entryX=1;entryY=0.5;entryDx=0;entryDy=0;" parent="1" source="VdSNLCkU5RJ3n_qXY93L-18" target="VdSNLCkU5RJ3n_qXY93L-21" edge="1">
          <mxGeometry relative="1" as="geometry" />
        </mxCell>
        <mxCell id="VdSNLCkU5RJ3n_qXY93L-28" value="" style="edgeStyle=orthogonalEdgeStyle;rounded=0;orthogonalLoop=1;jettySize=auto;html=1;" parent="1" source="VdSNLCkU5RJ3n_qXY93L-18" edge="1">
          <mxGeometry relative="1" as="geometry">
            <mxPoint x="335" y="760" as="targetPoint" />
          </mxGeometry>
        </mxCell>
        <mxCell id="VdSNLCkU5RJ3n_qXY93L-18" value="Dígito de escolha é igual a &#39;n&#39;?" style="rhombus;whiteSpace=wrap;html=1;" parent="1" vertex="1">
          <mxGeometry x="230" y="720" width="80" height="80" as="geometry" />
        </mxCell>
        <mxCell id="VdSNLCkU5RJ3n_qXY93L-24" style="edgeStyle=orthogonalEdgeStyle;rounded=0;orthogonalLoop=1;jettySize=auto;html=1;exitX=0;exitY=0.5;exitDx=0;exitDy=0;entryX=0;entryY=0.5;entryDx=0;entryDy=0;" parent="1" source="VdSNLCkU5RJ3n_qXY93L-21" target="VdSNLCkU5RJ3n_qXY93L-2" edge="1">
          <mxGeometry relative="1" as="geometry" />
        </mxCell>
        <mxCell id="VdSNLCkU5RJ3n_qXY93L-21" value="&lt;div&gt;&quot;Dígito inválido. Digite-o novamente&lt;span style=&quot;background-color: transparent; color: light-dark(rgb(0, 0, 0), rgb(255, 255, 255));&quot;&gt;&quot;&lt;/span&gt;&lt;/div&gt;" style="shape=document;whiteSpace=wrap;html=1;boundedLbl=1;" parent="1" vertex="1">
          <mxGeometry x="50" y="735" width="150" height="50" as="geometry" />
        </mxCell>
        <mxCell id="MPjt9UGckPZa9Mfz1uRQ-2" style="edgeStyle=orthogonalEdgeStyle;rounded=0;orthogonalLoop=1;jettySize=auto;html=1;exitX=1;exitY=0.5;exitDx=0;exitDy=0;entryX=0.5;entryY=0;entryDx=0;entryDy=0;" parent="1" source="MPjt9UGckPZa9Mfz1uRQ-1" target="VdSNLCkU5RJ3n_qXY93L-2" edge="1">
          <mxGeometry relative="1" as="geometry" />
        </mxCell>
        <mxCell id="MPjt9UGckPZa9Mfz1uRQ-4" value="" style="edgeStyle=orthogonalEdgeStyle;rounded=0;orthogonalLoop=1;jettySize=auto;html=1;" parent="1" source="MPjt9UGckPZa9Mfz1uRQ-1" target="MPjt9UGckPZa9Mfz1uRQ-3" edge="1">
          <mxGeometry relative="1" as="geometry" />
        </mxCell>
        <mxCell id="MPjt9UGckPZa9Mfz1uRQ-1" value="Existe algum hábito cadastrado?" style="rhombus;whiteSpace=wrap;html=1;" parent="1" vertex="1">
          <mxGeometry x="280" y="150" width="80" height="80" as="geometry" />
        </mxCell>
        <mxCell id="MPjt9UGckPZa9Mfz1uRQ-6" value="" style="edgeStyle=orthogonalEdgeStyle;rounded=0;orthogonalLoop=1;jettySize=auto;html=1;" parent="1" source="MPjt9UGckPZa9Mfz1uRQ-3" target="MPjt9UGckPZa9Mfz1uRQ-5" edge="1">
          <mxGeometry relative="1" as="geometry" />
        </mxCell>
        <mxCell id="MPjt9UGckPZa9Mfz1uRQ-3" value="&quot;Ainda não há nenhum hábito cadastrado&quot;" style="shape=document;whiteSpace=wrap;html=1;boundedLbl=1;" parent="1" vertex="1">
          <mxGeometry x="120" y="150" width="120" height="80" as="geometry" />
        </mxCell>
        <mxCell id="MPjt9UGckPZa9Mfz1uRQ-5" value="Menu Hábitos" style="ellipse;whiteSpace=wrap;html=1;" parent="1" vertex="1">
          <mxGeometry x="10" y="150" width="80" height="80" as="geometry" />
        </mxCell>
        <mxCell id="MPjt9UGckPZa9Mfz1uRQ-7" value="F" style="text;html=1;align=center;verticalAlign=middle;resizable=0;points=[];autosize=1;strokeColor=none;fillColor=none;" parent="1" vertex="1">
          <mxGeometry x="255" y="158" width="30" height="30" as="geometry" />
        </mxCell>
        <mxCell id="MPjt9UGckPZa9Mfz1uRQ-8" value="V" style="text;html=1;align=center;verticalAlign=middle;resizable=0;points=[];autosize=1;strokeColor=none;fillColor=none;" parent="1" vertex="1">
          <mxGeometry x="360" y="158" width="30" height="30" as="geometry" />
        </mxCell>
        <mxCell id="MPjt9UGckPZa9Mfz1uRQ-9" value="V" style="text;html=1;align=center;verticalAlign=middle;resizable=0;points=[];autosize=1;strokeColor=none;fillColor=none;" parent="1" vertex="1">
          <mxGeometry x="425" y="603" width="30" height="30" as="geometry" />
        </mxCell>
        <mxCell id="MPjt9UGckPZa9Mfz1uRQ-10" value="F" style="text;html=1;align=center;verticalAlign=middle;resizable=0;points=[];autosize=1;strokeColor=none;fillColor=none;" parent="1" vertex="1">
          <mxGeometry x="315" y="603" width="30" height="30" as="geometry" />
        </mxCell>
        <mxCell id="MPjt9UGckPZa9Mfz1uRQ-11" value="V" style="text;html=1;align=center;verticalAlign=middle;resizable=0;points=[];autosize=1;strokeColor=none;fillColor=none;" parent="1" vertex="1">
          <mxGeometry x="305" y="733" width="30" height="30" as="geometry" />
        </mxCell>
        <mxCell id="MPjt9UGckPZa9Mfz1uRQ-12" value="F" style="text;html=1;align=center;verticalAlign=middle;resizable=0;points=[];autosize=1;strokeColor=none;fillColor=none;" parent="1" vertex="1">
          <mxGeometry x="210" y="735" width="30" height="30" as="geometry" />
        </mxCell>
        <mxCell id="MPjt9UGckPZa9Mfz1uRQ-19" value="" style="edgeStyle=orthogonalEdgeStyle;rounded=0;orthogonalLoop=1;jettySize=auto;html=1;entryX=0.5;entryY=0;entryDx=0;entryDy=0;entryPerimeter=0;" parent="1" source="MPjt9UGckPZa9Mfz1uRQ-17" target="MPjt9UGckPZa9Mfz1uRQ-20" edge="1">
          <mxGeometry relative="1" as="geometry">
            <mxPoint x="790" y="690" as="targetPoint" />
            <Array as="points">
              <mxPoint x="750" y="630" />
            </Array>
          </mxGeometry>
        </mxCell>
        <mxCell id="MPjt9UGckPZa9Mfz1uRQ-17" value="&quot;Status (Feito/Não feito): &quot;" style="shape=document;whiteSpace=wrap;html=1;boundedLbl=1;" parent="1" vertex="1">
          <mxGeometry x="600" y="590" width="60" height="80" as="geometry" />
        </mxCell>
        <mxCell id="MPjt9UGckPZa9Mfz1uRQ-24" style="edgeStyle=orthogonalEdgeStyle;rounded=0;orthogonalLoop=1;jettySize=auto;html=1;exitX=0;exitY=0.5;exitDx=0;exitDy=0;entryX=0.5;entryY=0;entryDx=0;entryDy=0;" parent="1" source="MPjt9UGckPZa9Mfz1uRQ-18" target="MPjt9UGckPZa9Mfz1uRQ-23" edge="1">
          <mxGeometry relative="1" as="geometry" />
        </mxCell>
        <mxCell id="MPjt9UGckPZa9Mfz1uRQ-27" value="" style="edgeStyle=orthogonalEdgeStyle;rounded=0;orthogonalLoop=1;jettySize=auto;html=1;" parent="1" source="MPjt9UGckPZa9Mfz1uRQ-18" target="MPjt9UGckPZa9Mfz1uRQ-26" edge="1">
          <mxGeometry relative="1" as="geometry" />
        </mxCell>
        <mxCell id="MPjt9UGckPZa9Mfz1uRQ-18" value="Status é &quot;Feito&quot;?" style="rhombus;whiteSpace=wrap;html=1;" parent="1" vertex="1">
          <mxGeometry x="710" y="800" width="80" height="80" as="geometry" />
        </mxCell>
        <mxCell id="MPjt9UGckPZa9Mfz1uRQ-22" value="" style="edgeStyle=orthogonalEdgeStyle;rounded=0;orthogonalLoop=1;jettySize=auto;html=1;" parent="1" source="MPjt9UGckPZa9Mfz1uRQ-20" target="MPjt9UGckPZa9Mfz1uRQ-18" edge="1">
          <mxGeometry relative="1" as="geometry" />
        </mxCell>
        <mxCell id="MPjt9UGckPZa9Mfz1uRQ-20" value="" style="verticalLabelPosition=bottom;verticalAlign=top;html=1;shape=card;whiteSpace=wrap;size=20;arcSize=12;" parent="1" vertex="1">
          <mxGeometry x="700" y="690" width="100" height="60" as="geometry" />
        </mxCell>
        <mxCell id="MPjt9UGckPZa9Mfz1uRQ-21" value="Status" style="text;html=1;align=center;verticalAlign=middle;resizable=0;points=[];autosize=1;strokeColor=none;fillColor=none;" parent="1" vertex="1">
          <mxGeometry x="720" y="705" width="60" height="30" as="geometry" />
        </mxCell>
        <mxCell id="MPjt9UGckPZa9Mfz1uRQ-38" style="edgeStyle=orthogonalEdgeStyle;rounded=0;orthogonalLoop=1;jettySize=auto;html=1;exitX=0;exitY=0.5;exitDx=0;exitDy=0;entryX=1;entryY=0.5;entryDx=0;entryDy=0;" parent="1" source="MPjt9UGckPZa9Mfz1uRQ-23" target="MPjt9UGckPZa9Mfz1uRQ-25" edge="1">
          <mxGeometry relative="1" as="geometry" />
        </mxCell>
        <mxCell id="MPjt9UGckPZa9Mfz1uRQ-23" value="Status é &quot;Não feito&quot;?" style="rhombus;whiteSpace=wrap;html=1;" parent="1" vertex="1">
          <mxGeometry x="640" y="870" width="80" height="80" as="geometry" />
        </mxCell>
        <mxCell id="MPjt9UGckPZa9Mfz1uRQ-37" style="edgeStyle=orthogonalEdgeStyle;rounded=0;orthogonalLoop=1;jettySize=auto;html=1;exitX=0;exitY=0.5;exitDx=0;exitDy=0;entryX=0;entryY=0.5;entryDx=0;entryDy=0;" parent="1" source="MPjt9UGckPZa9Mfz1uRQ-25" target="MPjt9UGckPZa9Mfz1uRQ-17" edge="1">
          <mxGeometry relative="1" as="geometry">
            <Array as="points">
              <mxPoint x="380" y="910" />
              <mxPoint x="380" y="850" />
              <mxPoint x="450" y="850" />
              <mxPoint x="450" y="630" />
            </Array>
          </mxGeometry>
        </mxCell>
        <mxCell id="MPjt9UGckPZa9Mfz1uRQ-25" value="&quot;Dígito inválido. Digite Novamente&quot;" style="shape=document;whiteSpace=wrap;html=1;boundedLbl=1;" parent="1" vertex="1">
          <mxGeometry x="520" y="885" width="90" height="50" as="geometry" />
        </mxCell>
        <mxCell id="MPjt9UGckPZa9Mfz1uRQ-62" style="edgeStyle=orthogonalEdgeStyle;rounded=0;orthogonalLoop=1;jettySize=auto;html=1;exitX=1;exitY=0.5;exitDx=0;exitDy=0;entryX=0;entryY=0.5;entryDx=0;entryDy=0;" parent="1" source="MPjt9UGckPZa9Mfz1uRQ-26" target="MPjt9UGckPZa9Mfz1uRQ-28" edge="1">
          <mxGeometry relative="1" as="geometry" />
        </mxCell>
        <mxCell id="MPjt9UGckPZa9Mfz1uRQ-26" value="Sistema incrementa Status, salvo no banco de dados&amp;nbsp;" style="rounded=0;whiteSpace=wrap;html=1;" parent="1" vertex="1">
          <mxGeometry x="860" y="780" width="70" height="120" as="geometry" />
        </mxCell>
        <mxCell id="MPjt9UGckPZa9Mfz1uRQ-32" value="" style="edgeStyle=orthogonalEdgeStyle;rounded=0;orthogonalLoop=1;jettySize=auto;html=1;entryX=0.5;entryY=0;entryDx=0;entryDy=0;entryPerimeter=0;" parent="1" source="MPjt9UGckPZa9Mfz1uRQ-28" target="MPjt9UGckPZa9Mfz1uRQ-30" edge="1">
          <mxGeometry relative="1" as="geometry" />
        </mxCell>
        <mxCell id="MPjt9UGckPZa9Mfz1uRQ-28" value="&quot;Data (AAAA-MM-DD), ou deixe Vazio pára hoje:&amp;nbsp;&lt;span style=&quot;background-color: transparent; color: light-dark(rgb(0, 0, 0), rgb(255, 255, 255));&quot;&gt;&quot;&lt;/span&gt;" style="shape=document;whiteSpace=wrap;html=1;boundedLbl=1;" parent="1" vertex="1">
          <mxGeometry x="1050" y="800" width="120" height="80" as="geometry" />
        </mxCell>
        <mxCell id="MPjt9UGckPZa9Mfz1uRQ-30" value="" style="verticalLabelPosition=bottom;verticalAlign=top;html=1;shape=card;whiteSpace=wrap;size=20;arcSize=12;" parent="1" vertex="1">
          <mxGeometry x="1060" y="910" width="100" height="60" as="geometry" />
        </mxCell>
        <mxCell id="MPjt9UGckPZa9Mfz1uRQ-34" value="" style="edgeStyle=orthogonalEdgeStyle;rounded=0;orthogonalLoop=1;jettySize=auto;html=1;" parent="1" source="MPjt9UGckPZa9Mfz1uRQ-31" target="MPjt9UGckPZa9Mfz1uRQ-33" edge="1">
          <mxGeometry relative="1" as="geometry" />
        </mxCell>
        <mxCell id="MPjt9UGckPZa9Mfz1uRQ-31" value="Data" style="text;html=1;align=center;verticalAlign=middle;resizable=0;points=[];autosize=1;strokeColor=none;fillColor=none;" parent="1" vertex="1">
          <mxGeometry x="1085" y="925" width="50" height="30" as="geometry" />
        </mxCell>
        <mxCell id="MPjt9UGckPZa9Mfz1uRQ-36" value="" style="edgeStyle=orthogonalEdgeStyle;rounded=0;orthogonalLoop=1;jettySize=auto;html=1;exitX=0;exitY=0.5;exitDx=0;exitDy=0;" parent="1" source="MPjt9UGckPZa9Mfz1uRQ-33" target="MPjt9UGckPZa9Mfz1uRQ-35" edge="1">
          <mxGeometry relative="1" as="geometry">
            <mxPoint x="1105.0000000000005" y="1065" as="sourcePoint" />
            <Array as="points">
              <mxPoint x="1030" y="1065" />
            </Array>
          </mxGeometry>
        </mxCell>
        <mxCell id="MPjt9UGckPZa9Mfz1uRQ-40" value="" style="edgeStyle=orthogonalEdgeStyle;rounded=0;orthogonalLoop=1;jettySize=auto;html=1;" parent="1" source="MPjt9UGckPZa9Mfz1uRQ-33" target="MPjt9UGckPZa9Mfz1uRQ-39" edge="1">
          <mxGeometry relative="1" as="geometry" />
        </mxCell>
        <mxCell id="MPjt9UGckPZa9Mfz1uRQ-33" value="Data foi adicionada segundo a formatação AAAA-MM-DD?" style="rhombus;whiteSpace=wrap;html=1;" parent="1" vertex="1">
          <mxGeometry x="1055" y="1010" width="110" height="110" as="geometry" />
        </mxCell>
        <mxCell id="MPjt9UGckPZa9Mfz1uRQ-42" value="" style="edgeStyle=orthogonalEdgeStyle;rounded=0;orthogonalLoop=1;jettySize=auto;html=1;" parent="1" source="MPjt9UGckPZa9Mfz1uRQ-35" target="MPjt9UGckPZa9Mfz1uRQ-41" edge="1">
          <mxGeometry relative="1" as="geometry" />
        </mxCell>
        <mxCell id="MPjt9UGckPZa9Mfz1uRQ-53" style="edgeStyle=orthogonalEdgeStyle;rounded=0;orthogonalLoop=1;jettySize=auto;html=1;exitX=0;exitY=0.5;exitDx=0;exitDy=0;entryX=0.5;entryY=0;entryDx=0;entryDy=0;" parent="1" target="MPjt9UGckPZa9Mfz1uRQ-52" edge="1">
          <mxGeometry relative="1" as="geometry">
            <mxPoint x="999.9999999999995" y="1185" as="sourcePoint" />
          </mxGeometry>
        </mxCell>
        <mxCell id="MPjt9UGckPZa9Mfz1uRQ-35" value="Data é Vazio?" style="rhombus;whiteSpace=wrap;html=1;" parent="1" vertex="1">
          <mxGeometry x="990" y="1140" width="80" height="80" as="geometry" />
        </mxCell>
        <mxCell id="MPjt9UGckPZa9Mfz1uRQ-46" style="edgeStyle=orthogonalEdgeStyle;rounded=0;orthogonalLoop=1;jettySize=auto;html=1;exitX=1;exitY=0.5;exitDx=0;exitDy=0;entryX=0.5;entryY=0;entryDx=0;entryDy=0;" parent="1" source="MPjt9UGckPZa9Mfz1uRQ-39" target="MPjt9UGckPZa9Mfz1uRQ-45" edge="1">
          <mxGeometry relative="1" as="geometry" />
        </mxCell>
        <mxCell id="MPjt9UGckPZa9Mfz1uRQ-39" value="Sistema salva data digitada para o progresso" style="rounded=0;whiteSpace=wrap;html=1;" parent="1" vertex="1">
          <mxGeometry x="1200" y="1037.5" width="150" height="55" as="geometry" />
        </mxCell>
        <mxCell id="MPjt9UGckPZa9Mfz1uRQ-47" style="edgeStyle=orthogonalEdgeStyle;rounded=0;orthogonalLoop=1;jettySize=auto;html=1;exitX=1;exitY=0.5;exitDx=0;exitDy=0;entryX=0.5;entryY=0;entryDx=0;entryDy=0;" parent="1" source="MPjt9UGckPZa9Mfz1uRQ-41" target="MPjt9UGckPZa9Mfz1uRQ-45" edge="1">
          <mxGeometry relative="1" as="geometry" />
        </mxCell>
        <mxCell id="MPjt9UGckPZa9Mfz1uRQ-41" value="Sistema salva data do dia de hoje correspondente do usuário&amp;nbsp;&lt;span style=&quot;background-color: transparent; color: light-dark(rgb(0, 0, 0), rgb(255, 255, 255));&quot;&gt;para o progresso&lt;/span&gt;" style="rounded=0;whiteSpace=wrap;html=1;" parent="1" vertex="1">
          <mxGeometry x="1200" y="1152.5" width="150" height="55" as="geometry" />
        </mxCell>
        <mxCell id="MPjt9UGckPZa9Mfz1uRQ-58" value="" style="edgeStyle=orthogonalEdgeStyle;rounded=0;orthogonalLoop=1;jettySize=auto;html=1;" parent="1" target="MPjt9UGckPZa9Mfz1uRQ-57" edge="1">
          <mxGeometry relative="1" as="geometry">
            <mxPoint x="1384.9999999999995" y="1320" as="sourcePoint" />
          </mxGeometry>
        </mxCell>
        <mxCell id="MPjt9UGckPZa9Mfz1uRQ-45" value="E, por algoritmo (função progresso()), não permite a inserção repetida de progresso num mesmo período de tempo referente à frequência (impedindo que usuários burlem o sistema de inserção)" style="rounded=0;whiteSpace=wrap;html=1;" parent="1" vertex="1">
          <mxGeometry x="1280" y="1240" width="210" height="95" as="geometry" />
        </mxCell>
        <mxCell id="MPjt9UGckPZa9Mfz1uRQ-50" style="edgeStyle=orthogonalEdgeStyle;rounded=0;orthogonalLoop=1;jettySize=auto;html=1;exitX=0;exitY=0.5;exitDx=0;exitDy=0;entryX=0;entryY=0.5;entryDx=0;entryDy=0;" parent="1" source="MPjt9UGckPZa9Mfz1uRQ-48" target="MPjt9UGckPZa9Mfz1uRQ-28" edge="1">
          <mxGeometry relative="1" as="geometry">
            <Array as="points">
              <mxPoint x="770" y="1360" />
              <mxPoint x="760" y="1360" />
              <mxPoint x="760" y="950" />
              <mxPoint x="1030" y="950" />
              <mxPoint x="1030" y="840" />
            </Array>
          </mxGeometry>
        </mxCell>
        <mxCell id="MPjt9UGckPZa9Mfz1uRQ-48" value="&quot;Dígito inválido. Digite Novamente&quot;" style="shape=document;whiteSpace=wrap;html=1;boundedLbl=1;" parent="1" vertex="1">
          <mxGeometry x="770" y="1340" width="150" height="50" as="geometry" />
        </mxCell>
        <mxCell id="MPjt9UGckPZa9Mfz1uRQ-54" style="edgeStyle=orthogonalEdgeStyle;rounded=0;orthogonalLoop=1;jettySize=auto;html=1;exitX=0;exitY=0.5;exitDx=0;exitDy=0;entryX=0.5;entryY=0;entryDx=0;entryDy=0;" parent="1" source="MPjt9UGckPZa9Mfz1uRQ-52" target="MPjt9UGckPZa9Mfz1uRQ-48" edge="1">
          <mxGeometry relative="1" as="geometry" />
        </mxCell>
        <mxCell id="MPjt9UGckPZa9Mfz1uRQ-56" style="edgeStyle=orthogonalEdgeStyle;rounded=0;orthogonalLoop=1;jettySize=auto;html=1;exitX=1;exitY=0.5;exitDx=0;exitDy=0;entryX=0.5;entryY=0;entryDx=0;entryDy=0;" parent="1" source="MPjt9UGckPZa9Mfz1uRQ-52" target="MPjt9UGckPZa9Mfz1uRQ-55" edge="1">
          <mxGeometry relative="1" as="geometry" />
        </mxCell>
        <mxCell id="MPjt9UGckPZa9Mfz1uRQ-52" value="Data está dentro do intervalo da frequência (diária, semanal ou mensal)" style="rhombus;whiteSpace=wrap;html=1;" parent="1" vertex="1">
          <mxGeometry x="870" y="1215" width="110" height="110" as="geometry" />
        </mxCell>
        <mxCell id="MPjt9UGckPZa9Mfz1uRQ-60" value="" style="edgeStyle=orthogonalEdgeStyle;rounded=0;orthogonalLoop=1;jettySize=auto;html=1;" parent="1" source="MPjt9UGckPZa9Mfz1uRQ-55" target="MPjt9UGckPZa9Mfz1uRQ-59" edge="1">
          <mxGeometry relative="1" as="geometry" />
        </mxCell>
        <mxCell id="MPjt9UGckPZa9Mfz1uRQ-55" value="&quot;Progresso já inserido nesse dia/semana/mês&quot;" style="shape=document;whiteSpace=wrap;html=1;boundedLbl=1;" parent="1" vertex="1">
          <mxGeometry x="1070" y="1365" width="150" height="50" as="geometry" />
        </mxCell>
        <mxCell id="MPjt9UGckPZa9Mfz1uRQ-61" value="" style="edgeStyle=orthogonalEdgeStyle;rounded=0;orthogonalLoop=1;jettySize=auto;html=1;" parent="1" source="MPjt9UGckPZa9Mfz1uRQ-57" target="MPjt9UGckPZa9Mfz1uRQ-59" edge="1">
          <mxGeometry relative="1" as="geometry">
            <Array as="points">
              <mxPoint x="1385" y="1435" />
              <mxPoint x="1260" y="1435" />
            </Array>
          </mxGeometry>
        </mxCell>
        <mxCell id="MPjt9UGckPZa9Mfz1uRQ-57" value="&quot;Progesso adicionado&quot;" style="shape=document;whiteSpace=wrap;html=1;boundedLbl=1;" parent="1" vertex="1">
          <mxGeometry x="1310" y="1365" width="150" height="50" as="geometry" />
        </mxCell>
        <mxCell id="MPjt9UGckPZa9Mfz1uRQ-59" value="Menu Hábitos" style="ellipse;whiteSpace=wrap;html=1;" parent="1" vertex="1">
          <mxGeometry x="1220" y="1455" width="80" height="80" as="geometry" />
        </mxCell>
        <mxCell id="IpS9L0tlXViEHlFZpF3D-1" value="Menu Hábitos" style="ellipse;whiteSpace=wrap;html=1;" vertex="1" parent="1">
          <mxGeometry x="335" y="720" width="80" height="80" as="geometry" />
        </mxCell>
      </root>
    </mxGraphModel>
  </diagram>
</mxfile>
